<?xml version="1.0" encoding="utf-8"?>
<!-- Generator: Adobe Illustrator 17.0.0, SVG Export Plug-In . SVG Version: 6.00 Build 0)  -->
<!DOCTYPE svg PUBLIC "-//W3C//DTD SVG 1.1//EN" "http://www.w3.org/Graphics/SVG/1.1/DTD/svg11.dtd">
<svg version="1.1" id="Layer_1" xmlns="http://www.w3.org/2000/svg" xmlns:xlink="http://www.w3.org/1999/xlink" x="0px" y="0px"
	 width="71.25px" height="71.25px" viewBox="0 0 71.25 71.25" enable-background="new 0 0 71.25 71.25" xml:space="preserve">
<g>
	<g>
		
			<path fill="none" stroke="#172762" stroke-width="0.75" stroke-linecap="round" stroke-linejoin="round" stroke-miterlimit="10" d="
			M31.228,45.358h8.793c3.642,0,6.595-2.953,6.595-6.595c0-3.642-2.953-2.036-6.595-2.036h-8.793c-3.642,0-6.595-1.606-6.595,2.036
			C24.633,42.405,27.586,45.358,31.228,45.358z"/>
	</g>
	<g>
		
			<line fill="none" stroke="#172762" stroke-width="0.75" stroke-linecap="round" stroke-linejoin="round" stroke-miterlimit="10" x1="41.166" y1="36.374" x2="41.166" y2="28.227"/>
		
			<path fill="none" stroke="#172762" stroke-width="0.75" stroke-linecap="round" stroke-linejoin="round" stroke-miterlimit="10" d="
			M36.028,28.011c0-1.421,1.148-2.573,2.565-2.573c1.416,0,2.565,1.152,2.565,2.573"/>
	</g>
	
		<line fill="none" stroke="#172762" stroke-width="0.75" stroke-linecap="round" stroke-linejoin="round" stroke-miterlimit="10" x1="37.247" y1="28.011" x2="34.809" y2="28.011"/>
	
		<line fill="none" stroke="#172762" stroke-width="0.75" stroke-linecap="round" stroke-linejoin="round" stroke-miterlimit="10" x1="28.469" y1="44.813" x2="27.471" y2="45.812"/>
	
		<line fill="none" stroke="#172762" stroke-width="0.75" stroke-linecap="round" stroke-linejoin="round" stroke-miterlimit="10" x1="42.838" y1="44.813" x2="43.837" y2="45.812"/>
</g>
</svg>
