<?xml version="1.0" encoding="utf-8"?>
<!-- Generator: Adobe Illustrator 17.0.0, SVG Export Plug-In . SVG Version: 6.00 Build 0)  -->
<!DOCTYPE svg PUBLIC "-//W3C//DTD SVG 1.1//EN" "http://www.w3.org/Graphics/SVG/1.1/DTD/svg11.dtd">
<svg version="1.1" id="Layer_1" xmlns="http://www.w3.org/2000/svg" xmlns:xlink="http://www.w3.org/1999/xlink" x="0px" y="0px"
	 width="71.25px" height="71.25px" viewBox="0 0 71.25 71.25" enable-background="new 0 0 71.25 71.25" xml:space="preserve">
<g>
	<g>
		
			<polyline fill="none" stroke="#172762" stroke-width="0.75" stroke-linecap="round" stroke-linejoin="round" stroke-miterlimit="10" points="
			28.122,34.137 28.122,29.045 30.157,29.045 43.128,29.045 43.128,34.137 		"/>
	</g>
	
		<line fill="none" stroke="#172762" stroke-width="0.75" stroke-linecap="round" stroke-linejoin="round" stroke-miterlimit="10" x1="24.805" y1="39.879" x2="46.445" y2="39.879"/>
	<g>
		
			<path fill="none" stroke="#172762" stroke-width="0.75" stroke-linecap="round" stroke-linejoin="round" stroke-miterlimit="10" d="
			M30.346,34.884c-0.283-0.212-0.464-0.535-0.464-0.897v-1.204c0-0.639,0.564-1.156,1.26-1.156h2.152c0.696,0,1.26,0.518,1.26,1.156
			v1.204c0,0.215-0.064,0.417-0.176,0.589"/>
		
			<path fill="none" stroke="#172762" stroke-width="0.75" stroke-linecap="round" stroke-linejoin="round" stroke-miterlimit="10" d="
			M36.874,34.58c-0.113-0.173-0.177-0.376-0.177-0.592v-1.204c0-0.639,0.564-1.156,1.26-1.156h2.152c0.696,0,1.26,0.518,1.26,1.156
			v1.204c0,0.362-0.181,0.685-0.464,0.897"/>
	</g>
	
		<path fill="none" stroke="#172762" stroke-width="0.75" stroke-linecap="round" stroke-linejoin="round" stroke-miterlimit="10" d="
		M25.129,36.953c0-1.321,4.699-2.393,10.496-2.393c0.423,0,0.84,0.006,1.25,0.017c1.455,0.039,2.819,0.147,4.028,0.307
		c3.12,0.415,5.217,1.186,5.217,2.069"/>
	<g>
		
			<polyline fill="none" stroke="#172762" stroke-width="0.75" stroke-linecap="round" stroke-linejoin="round" stroke-miterlimit="10" points="
			24.805,42.205 24.805,37.028 27.74,37.028 46.445,37.028 46.445,42.205 		"/>
	</g>
</g>
</svg>
