<?xml version="1.0" encoding="utf-8"?>
<!-- Generator: Adobe Illustrator 17.0.0, SVG Export Plug-In . SVG Version: 6.00 Build 0)  -->
<!DOCTYPE svg PUBLIC "-//W3C//DTD SVG 1.1//EN" "http://www.w3.org/Graphics/SVG/1.1/DTD/svg11.dtd">
<svg version="1.1" id="Layer_1" xmlns="http://www.w3.org/2000/svg" xmlns:xlink="http://www.w3.org/1999/xlink" x="0px" y="0px"
	 width="71.25px" height="71.25px" viewBox="0 0 71.25 71.25" enable-background="new 0 0 71.25 71.25" xml:space="preserve">
<g>
	
		<path fill="none" stroke="#172762" stroke-width="0.75" stroke-linecap="round" stroke-linejoin="round" stroke-miterlimit="10" d="
		M35.546,37.374c0.103,0.63,0.165,1.345,0.165,2.193c0,2.575-1.046,4.679-1.046,6.503c0,1.76,0.392,1.95,1.895,1.95h8.756
		c1.503,0,1.895-0.204,1.895-1.958c0-1.824-1.046-3.908-1.046-6.482c0.001-5.24,2.353-5.429,2.353-11.813l0,0
		c0-1.368-0.066-5.731-1.262-8.109c-0.294-0.575-0.621-0.813-1.875-0.813h-8.886c-1.262,0-1.581,0.239-1.875,0.813
		c-0.533,1.059-0.841,2.518-1.019,3.931 M35.37,25.994h13.095"/>
	
		<path fill="none" stroke="#172762" stroke-width="0.75" stroke-linecap="round" stroke-linejoin="round" stroke-miterlimit="10" d="
		M34.642,24.211c-0.134-0.37-0.472-0.619-0.869-0.619h-8.078c-0.404,0-0.734,0.249-0.875,0.619
		c-0.627,1.683-2.087,5.863-2.087,8.402v0.323c0,1.293,0,3.057,1.912,5.015c0.438,0.451,0.963,0.869,1.515,1.313
		c1.286,1.03,2.612,2.094,2.612,3.38v7.742c0,0.074-0.061,0.134-0.134,0.134h-3.844c-0.532,0-0.963,0.425-0.963,0.942
		c0,0.519,0.431,0.942,0.963,0.942h9.883c0.532,0,0.963-0.425,0.963-0.942c0-0.519-0.431-0.942-0.963-0.942h-3.844
		c-0.074,0-0.134-0.061-0.134-0.134v-7.742c0-1.286,1.326-2.349,2.612-3.38c0.552-0.444,1.071-0.861,1.515-1.313
		c1.912-1.959,1.912-3.723,1.912-5.015v-0.323C36.736,30.089,35.275,25.895,34.642,24.211z M23.501,28.575h12.492"/>
</g>
</svg>
