<?xml version="1.0" encoding="UTF-8" standalone="no"?>
<!-- Generator: Adobe Illustrator 17.0.0, SVG Export Plug-In . SVG Version: 6.00 Build 0)  -->

<svg
   xmlns:dc="http://purl.org/dc/elements/1.1/"
   xmlns:cc="http://creativecommons.org/ns#"
   xmlns:rdf="http://www.w3.org/1999/02/22-rdf-syntax-ns#"
   xmlns:svg="http://www.w3.org/2000/svg"
   xmlns="http://www.w3.org/2000/svg"
   xmlns:sodipodi="http://sodipodi.sourceforge.net/DTD/sodipodi-0.dtd"
   xmlns:inkscape="http://www.inkscape.org/namespaces/inkscape"
   version="1.1"
   id="Layer_1"
   x="0px"
   y="0px"
   width="71.25px"
   height="71.25px"
   viewBox="0 0 71.25 71.25"
   enable-background="new 0 0 71.25 71.25"
   xml:space="preserve"
   sodipodi:docname="distance_to_sea.svg"
   inkscape:version="0.92.4 (5da689c313, 2019-01-14)"><metadata
   id="metadata17"><rdf:RDF><cc:Work
       rdf:about=""><dc:format>image/svg+xml</dc:format><dc:type
         rdf:resource="http://purl.org/dc/dcmitype/StillImage" /></cc:Work></rdf:RDF></metadata><defs
   id="defs15" /><sodipodi:namedview
   pagecolor="#ffffff"
   bordercolor="#666666"
   borderopacity="1"
   objecttolerance="10"
   gridtolerance="10"
   guidetolerance="10"
   inkscape:pageopacity="0"
   inkscape:pageshadow="2"
   inkscape:window-width="1920"
   inkscape:window-height="1017"
   id="namedview13"
   showgrid="false"
   inkscape:zoom="3.3122807"
   inkscape:cx="35.625"
   inkscape:cy="35.625"
   inkscape:window-x="-8"
   inkscape:window-y="-8"
   inkscape:window-maximized="1"
   inkscape:current-layer="Layer_1" />
<g
   id="g10"
   style="stroke:#172762;stroke-opacity:1">
	<g
   id="g4"
   style="stroke:#172762;stroke-opacity:1">
		
			<path
   fill="none"
   stroke="#FFF"
   stroke-width="0.75"
   stroke-linecap="round"
   stroke-linejoin="round"
   stroke-miterlimit="10"
   d="    M46.399,31.396c-0.447,1.081-1.512,1.843-2.755,1.843c-1.172,0-2.186-0.677-2.673-1.661c-0.486,0.984-1.5,1.661-2.672,1.661    c-1.172,0-2.186-0.677-2.673-1.661c-0.486,0.984-1.501,1.661-2.673,1.661c-1.172,0-2.186-0.677-2.672-1.661    c-0.486,0.984-1.501,1.661-2.673,1.661c-1.243,0-2.308-0.761-2.755-1.843 M46.399,34.71c-0.447,1.081-1.512,1.843-2.755,1.843    c-1.172,0-2.186-0.677-2.673-1.661c-0.486,0.984-1.5,1.661-2.672,1.661c-1.172,0-2.186-0.677-2.673-1.661    c-0.486,0.984-1.501,1.661-2.673,1.661c-1.172,0-2.186-0.677-2.672-1.661c-0.486,0.984-1.501,1.661-2.673,1.661    c-1.243,0-2.308-0.761-2.755-1.843"
   id="path2"
   style="stroke:#172762;stroke-opacity:1" />
	</g>
	<g
   id="g8"
   style="stroke:#172762;stroke-opacity:1">
		
			<path
   fill="none"
   stroke="#FFF"
   stroke-width="0.75"
   stroke-linecap="round"
   stroke-linejoin="round"
   stroke-miterlimit="10"
   d="    M46.399,38.011c-0.447,1.081-1.512,1.843-2.755,1.843c-1.172,0-2.186-0.677-2.673-1.661c-0.486,0.984-1.5,1.661-2.672,1.661    c-1.172,0-2.186-0.677-2.673-1.661c-0.486,0.984-1.501,1.661-2.673,1.661c-1.172,0-2.186-0.677-2.672-1.661    c-0.486,0.984-1.501,1.661-2.673,1.661c-1.243,0-2.308-0.761-2.755-1.843"
   id="path6"
   style="stroke:#172762;stroke-opacity:1" />
	</g>
</g>
</svg>