<?xml version="1.0" encoding="utf-8"?>
<!-- Generator: Adobe Illustrator 17.0.0, SVG Export Plug-In . SVG Version: 6.00 Build 0)  -->
<!DOCTYPE svg PUBLIC "-//W3C//DTD SVG 1.1//EN" "http://www.w3.org/Graphics/SVG/1.1/DTD/svg11.dtd">
<svg version="1.1" id="Layer_1" xmlns="http://www.w3.org/2000/svg" xmlns:xlink="http://www.w3.org/1999/xlink" x="0px" y="0px"
	 width="71.25px" height="71.25px" viewBox="0 0 71.25 71.25" enable-background="new 0 0 71.25 71.25" xml:space="preserve">
<g>
	
		<ellipse fill="none" stroke="#172762" stroke-width="0.75" stroke-linecap="round" stroke-linejoin="round" stroke-miterlimit="10" cx="28.543" cy="48.018" rx="1.77" ry="1.77"/>
	
		<ellipse fill="none" stroke="#172762" stroke-width="0.75" stroke-linecap="round" stroke-linejoin="round" stroke-miterlimit="10" cx="45.101" cy="48.018" rx="1.77" ry="1.77"/>
	
		<path fill="none" stroke="#172762" stroke-width="0.75" stroke-linecap="round" stroke-linejoin="round" stroke-miterlimit="10" d="
		M50.948,26.499c-0.052-0.177-0.206-0.295-0.383-0.31l-24.02-2.323c-0.206-0.022-0.457-0.155-0.553-0.347
		c-0.28-0.524-0.457-0.819-0.9-1.372c-0.568-0.693-1.637-0.671-3.599-0.686c-0.664-0.007-1.202,0.383-1.202,1.04
		c0,0.642,0.509,1.04,1.15,1.04c0.642,0,1.571,0.037,1.917,0.14c0.347,0.103,0.627,0.671,0.73,1.165c0,0.007,0,0.015,0.007,0.022
		c0.015,0.088,0.147,0.752,0.147,0.76l2.95,15.605c0.177,1.069,0.538,1.954,1.069,2.633c0.619,0.796,1.438,1.195,2.426,1.195h17.449
		c0.56,0,1.04-0.428,1.062-0.988c0.029-0.59-0.442-1.077-1.032-1.077H30.675c-0.147,0-0.361,0-0.612-0.206
		c-0.258-0.221-0.612-0.73-0.848-1.917l-0.317-1.748c0-0.022,0.007-0.037,0.029-0.044l20.48-3.466
		c0.192-0.029,0.339-0.184,0.361-0.383l1.18-8.54C50.963,26.632,50.963,26.565,50.948,26.499L50.948,26.499z"/>
	
		<line fill="none" stroke="#172762" stroke-width="0.75" stroke-linecap="round" stroke-linejoin="round" stroke-miterlimit="10" x1="26.091" y1="23.703" x2="28.897" y2="39.125"/>
	
		<line fill="none" stroke="#172762" stroke-width="0.75" stroke-linecap="round" stroke-linejoin="round" stroke-miterlimit="10" x1="28.354" y1="35.919" x2="49.989" y2="33.564"/>
	
		<line fill="none" stroke="#172762" stroke-width="0.75" stroke-linecap="round" stroke-linejoin="round" stroke-miterlimit="10" x1="26.808" y1="26.867" x2="50.578" y2="28.265"/>
	
		<line fill="none" stroke="#172762" stroke-width="0.75" stroke-linecap="round" stroke-linejoin="round" stroke-miterlimit="10" x1="27.471" y1="31.356" x2="50.21" y2="31.356"/>
	
		<line fill="none" stroke="#172762" stroke-width="0.75" stroke-linecap="round" stroke-linejoin="round" stroke-miterlimit="10" x1="46.751" y1="25.846" x2="45.942" y2="36.066"/>
	
		<line fill="none" stroke="#172762" stroke-width="0.75" stroke-linecap="round" stroke-linejoin="round" stroke-miterlimit="10" x1="42.354" y1="25.616" x2="42.354" y2="36.581"/>
	
		<line fill="none" stroke="#172762" stroke-width="0.75" stroke-linecap="round" stroke-linejoin="round" stroke-miterlimit="10" x1="37.047" y1="25.101" x2="38.077" y2="37.243"/>
	
		<line fill="none" stroke="#172762" stroke-width="0.75" stroke-linecap="round" stroke-linejoin="round" stroke-miterlimit="10" x1="31.27" y1="24.346" x2="33.284" y2="38.053"/>
</g>
</svg>
