<?xml version="1.0" encoding="utf-8"?>
<!-- Generator: Adobe Illustrator 17.0.0, SVG Export Plug-In . SVG Version: 6.00 Build 0)  -->
<!DOCTYPE svg PUBLIC "-//W3C//DTD SVG 1.1//EN" "http://www.w3.org/Graphics/SVG/1.1/DTD/svg11.dtd">
<svg version="1.1" id="Layer_1" xmlns="http://www.w3.org/2000/svg" xmlns:xlink="http://www.w3.org/1999/xlink" x="0px" y="0px"
	 width="71.25px" height="71.25px" viewBox="0 0 71.25 71.25" enable-background="new 0 0 71.25 71.25" xml:space="preserve">
<path fill="none" stroke="#172762" stroke-width="0.75" stroke-linecap="round" stroke-linejoin="round" stroke-miterlimit="10" d="
	M41.542,28.212c0,1.137-0.921,2.058-2.058,2.058h-7.717c-1.137,0-2.058-0.921-2.058-2.058v-3.258c0-1.137,0.921-2.058,2.058-2.058
	h7.717c1.137,0,2.058,0.921,2.058,2.058V28.212z"/>
<path fill="#FFFFFF" stroke="#172762" stroke-width="0.75" stroke-linecap="round" stroke-linejoin="round" stroke-miterlimit="10" d="
	M52.125,47.595c0,1.105-0.895,2-2,2h-29c-1.105,0-2-0.895-2-2V28.762c0-1.105,0.895-2,2-2h29c1.105,0,2,0.895,2,2V47.595z"/>
<path fill="none" stroke="#172762" stroke-width="0.75" stroke-linecap="round" stroke-linejoin="round" stroke-miterlimit="10" d="
	M41.708,36.875h-4.333v-4.333c0-0.552-0.448-1-1-1h-1.5c-0.552,0-1,0.448-1,1v4.333h-4.333c-0.552,0-1,0.448-1,1v1.5
	c0,0.552,0.448,1,1,1h4.333v4.333c0,0.552,0.448,1,1,1h1.5c0.552,0,1-0.448,1-1v-4.333h4.333c0.552,0,1-0.448,1-1v-1.5
	C42.708,37.323,42.261,36.875,41.708,36.875z"/>
</svg>
