<?xml version="1.0" encoding="utf-8"?>
<!-- Generator: Adobe Illustrator 17.0.0, SVG Export Plug-In . SVG Version: 6.00 Build 0)  -->
<!DOCTYPE svg PUBLIC "-//W3C//DTD SVG 1.1//EN" "http://www.w3.org/Graphics/SVG/1.1/DTD/svg11.dtd">
<svg version="1.1" id="Layer_1" xmlns="http://www.w3.org/2000/svg" xmlns:xlink="http://www.w3.org/1999/xlink" x="0px" y="0px"
	 width="71.25px" height="71.25px" viewBox="0 0 71.25 71.25" enable-background="new 0 0 71.25 71.25" xml:space="preserve">
<path fill="none" stroke="#172762" stroke-width="0.75" stroke-linecap="round" stroke-linejoin="round" stroke-miterlimit="10" d="
	M52.776,44.378c-0.796,1.926-2.694,3.284-4.909,3.284c-2.088,0-3.895-1.206-4.763-2.96c-0.867,1.754-2.673,2.96-4.761,2.96
	s-3.895-1.206-4.763-2.96c-0.867,1.754-2.674,2.96-4.762,2.96c-2.087,0-3.895-1.206-4.761-2.96c-0.867,1.754-2.674,2.96-4.763,2.96
	c-2.214,0-4.113-1.356-4.909-3.284 M43.105,52.412c-0.867,1.754-2.673,2.96-4.761,2.96s-3.895-1.206-4.763-2.96
	c-0.867,1.754-2.674,2.96-4.763,2.96c-2.087,0-3.895-1.206-4.761-2.96c-0.867,1.754-2.674,2.96-4.763,2.96
	c-2.214,0-4.113-1.355-4.909-3.284 M30.866,42.052c3.474-6.625,15.628-10.019,31.165-10.019 M50.042,24.747
	c-0.311,0.753-1.053,1.284-1.919,1.284c-0.816,0-1.523-0.471-1.861-1.157c-0.338,0.685-1.045,1.157-1.861,1.157
	c-0.816,0-1.523-0.471-1.861-1.157c-0.338,0.685-1.045,1.157-1.861,1.157s-1.523-0.471-1.861-1.157
	c-0.338,0.685-1.045,1.157-1.861,1.157c-0.866,0-1.607-0.53-1.919-1.284 M53.85,24.874c-0.338,0.685-1.045,1.157-1.861,1.157
	c-0.866,0-1.607-0.53-1.919-1.284 M35.025,24.764c0-4.05,4.214-7.334,9.414-7.334s9.414,3.284,9.414,7.334 M38.823,24.677
	c0,0,0.311-5.535,4.825-7.177c-1.524,3.605-1.084,6.803-0.995,7.562 M46.228,25.167c0.089-0.759,0.528-3.958-0.995-7.562
	c4.514,1.642,4.825,7.177,4.825,7.177 M35.107,24.306h18.721 M44.4,26.03v12.305 M51.129,41.274H46.18l7.898-6.939h4.949
	L51.129,41.274z M52.306,35.945h4.685 M48.237,39.568h4.609"/>
</svg>
