<?xml version="1.0" encoding="utf-8"?>
<!-- Generator: Adobe Illustrator 17.0.0, SVG Export Plug-In . SVG Version: 6.00 Build 0)  -->
<!DOCTYPE svg PUBLIC "-//W3C//DTD SVG 1.1//EN" "http://www.w3.org/Graphics/SVG/1.1/DTD/svg11.dtd">
<svg version="1.1" id="Layer_1" xmlns="http://www.w3.org/2000/svg" xmlns:xlink="http://www.w3.org/1999/xlink" x="0px" y="0px"
	 width="71.25px" height="71.25px" viewBox="0 0 71.25 71.25" enable-background="new 0 0 71.25 71.25" xml:space="preserve">
<g>
	<g>
		
			<path fill="none" stroke="#172762" stroke-width="0.75" stroke-linecap="round" stroke-linejoin="round" stroke-miterlimit="10" d="
			M54.066,28.386c-0.765,1.85-2.588,3.155-4.716,3.155c-2.006,0-3.742-1.159-4.575-2.843c-0.832,1.684-2.567,2.843-4.574,2.843
			s-3.742-1.159-4.575-2.843c-0.832,1.684-2.569,2.843-4.575,2.843s-3.742-1.159-4.574-2.843c-0.832,1.684-2.569,2.843-4.575,2.843
			c-2.128,0-3.951-1.303-4.716-3.155 M54.066,34.059c-0.765,1.85-2.588,3.155-4.716,3.155c-2.006,0-3.742-1.159-4.575-2.843
			c-0.832,1.684-2.567,2.843-4.574,2.843s-3.742-1.159-4.575-2.843c-0.832,1.684-2.569,2.843-4.575,2.843s-3.742-1.159-4.574-2.843
			c-0.832,1.684-2.569,2.843-4.575,2.843c-2.128,0-3.951-1.303-4.716-3.155"/>
	</g>
	<g>
		
			<path fill="none" stroke="#172762" stroke-width="0.75" stroke-linecap="round" stroke-linejoin="round" stroke-miterlimit="10" d="
			M54.066,39.709c-0.765,1.85-2.588,3.155-4.716,3.155c-2.006,0-3.742-1.159-4.575-2.843c-0.832,1.684-2.567,2.843-4.574,2.843
			s-3.742-1.159-4.575-2.843c-0.832,1.684-2.569,2.843-4.575,2.843s-3.742-1.159-4.574-2.843c-0.832,1.684-2.569,2.843-4.575,2.843
			c-2.128,0-3.951-1.303-4.716-3.155"/>
	</g>
</g>
</svg>
