<?xml version="1.0" encoding="utf-8"?>
<!-- Generator: Adobe Illustrator 17.0.0, SVG Export Plug-In . SVG Version: 6.00 Build 0)  -->
<!DOCTYPE svg PUBLIC "-//W3C//DTD SVG 1.1//EN" "http://www.w3.org/Graphics/SVG/1.1/DTD/svg11.dtd">
<svg version="1.1" id="Layer_1" xmlns="http://www.w3.org/2000/svg" xmlns:xlink="http://www.w3.org/1999/xlink" x="0px" y="0px"
	 width="71.25px" height="71.25px" viewBox="0 0 71.25 71.25" enable-background="new 0 0 71.25 71.25" xml:space="preserve">
<path fill="none" stroke="#172762" stroke-width="0.75" stroke-linecap="round" stroke-linejoin="round" stroke-miterlimit="10" d="
	M45.307,21.945c-0.213,0.213-0.919,0.932-1.107,1.145l-3.953,4.165c-0.044,0.044-0.106,0.069-0.163,0.05l-15.198-3.027
	c-0.469-0.106-0.969,0.044-1.307,0.382l-1.482,1.482c-0.35,0.35-0.119,0.819,0.331,1.019l12.065,5.798
	c0.113,0.05,0.144,0.194,0.056,0.281l-7.543,7.768c-0.156,0.169-0.382,0.244-0.607,0.219l-5.129-0.5
	c-0.432-0.056-0.863,0.1-1.17,0.407l-1.051,1.051c-0.175,0.175-0.125,0.463,0.094,0.569l5.541,3.052
	c0.331,0.144,0.6,0.413,0.744,0.744l3.052,5.541c0.106,0.219,0.394,0.269,0.569,0.094l1.045-1.045
	c0.306-0.306,0.457-0.744,0.407-1.17l-0.5-5.216c-0.025-0.225,0.056-0.457,0.219-0.607l7.781-7.443
	c0.094-0.081,0.231-0.056,0.281,0.056l5.804,12.071c0.2,0.45,0.669,0.682,1.019,0.331l1.482-1.482
	c0.344-0.344,0.488-0.838,0.382-1.307l-3.015-15.198c-0.013-0.063,0.006-0.119,0.05-0.163l4.165-3.953
	c0.219-0.194,0.932-0.894,1.145-1.107c2.771-2.771,3.628-5.416,2.521-6.523C50.729,18.323,48.084,19.168,45.307,21.945z"/>
</svg>
