<?xml version="1.0" encoding="utf-8"?>
<!-- Generator: Adobe Illustrator 17.0.0, SVG Export Plug-In . SVG Version: 6.00 Build 0)  -->
<!DOCTYPE svg PUBLIC "-//W3C//DTD SVG 1.1//EN" "http://www.w3.org/Graphics/SVG/1.1/DTD/svg11.dtd">
<svg version="1.1" id="Layer_1" xmlns="http://www.w3.org/2000/svg" xmlns:xlink="http://www.w3.org/1999/xlink" x="0px" y="0px"
	 width="71.25px" height="71.25px" viewBox="0 0 71.25 71.25" enable-background="new 0 0 71.25 71.25" xml:space="preserve">
<polyline fill="none" stroke="#172762" stroke-width="0.75" stroke-linecap="round" stroke-linejoin="round" stroke-miterlimit="10" points="
	29.987,33.207 28.447,33.207 28.447,23.987 19.852,23.987 19.852,32.727 "/>
<polyline fill="none" stroke="#172762" stroke-width="0.75" stroke-linecap="round" stroke-linejoin="round" stroke-miterlimit="10" points="
	42.658,41.382 42.658,23.987 41.203,23.987 41.203,19.458 35.864,19.458 35.864,32.037 "/>
<polyline fill="none" stroke="#172762" stroke-width="0.75" stroke-linecap="round" stroke-linejoin="round" stroke-miterlimit="10" points="
	52.759,34.738 52.759,27.948 51.465,27.948 51.465,24.551 48.23,24.551 48.23,27.786 46.937,27.786 46.937,33.871 "/>
<polyline fill="none" stroke="#172762" stroke-width="0.75" stroke-linecap="round" stroke-linejoin="round" stroke-miterlimit="10" points="
	14.451,51.792 14.451,32.727 21.381,32.727 21.381,36.334 24.939,36.334 24.939,41.224 30.065,41.224 30.065,32.076 39.529,32.076 
	39.529,41.382 44.576,41.382 44.576,35.861 49.485,31.879 54.079,36.059 54.079,39.331 56.799,39.331 56.799,49.268 "/>
<rect x="31.742" y="33.825" fill="#172762" width="1.692" height="3.205"/>
<rect x="31.742" y="39.078" fill="#172762" width="1.692" height="3.205"/>
<rect x="35.303" y="33.825" fill="#172762" width="1.692" height="3.205"/>
<rect x="21.582" y="25.853" fill="#172762" width="1.692" height="3.205"/>
<rect x="25.029" y="31.106" fill="#172762" width="1.692" height="3.205"/>
<rect x="25.029" y="25.853" fill="#172762" width="1.692" height="3.205"/>
<rect x="46.78" y="36.392" fill="#172762" width="1.692" height="3.205"/>
<rect x="50.341" y="36.392" fill="#172762" width="1.692" height="3.205"/>
<rect x="15.955" y="39.673" fill="#172762" width="1.692" height="3.205"/>
<rect x="15.955" y="44.926" fill="#172762" width="1.692" height="3.205"/>
<rect x="19.516" y="39.673" fill="#172762" width="1.692" height="3.205"/>
<rect x="15.955" y="34.421" fill="#172762" width="1.692" height="3.205"/>
</svg>
