<?xml version="1.0" encoding="utf-8"?>
<!-- Generator: Adobe Illustrator 17.0.0, SVG Export Plug-In . SVG Version: 6.00 Build 0)  -->
<!DOCTYPE svg PUBLIC "-//W3C//DTD SVG 1.1//EN" "http://www.w3.org/Graphics/SVG/1.1/DTD/svg11.dtd">
<svg version="1.1" id="Layer_1" xmlns="http://www.w3.org/2000/svg" xmlns:xlink="http://www.w3.org/1999/xlink" x="0px" y="0px"
	 width="71.25px" height="71.25px" viewBox="0 0 71.25 71.25" enable-background="new 0 0 71.25 71.25" xml:space="preserve">
<path fill="none" stroke="#172762" stroke-width="0.75" stroke-linecap="round" stroke-linejoin="round" stroke-miterlimit="10" d="
	M49.127,24.373v22.194c0,0.547,0.448,0.994,0.994,0.994c0.547,0,0.994-0.448,0.994-0.994v-7.957c0,0,1.99-1.43,1.99-4.973
	c0-5.141-1.442-9.947-2.984-9.947C49.811,23.689,49.127,23.689,49.127,24.373z"/>
<circle fill="none" stroke="#172762" stroke-width="0.75" stroke-linecap="round" stroke-linejoin="round" stroke-miterlimit="10" cx="35.625" cy="35.625" r="10.999"/>
<path fill="none" stroke="#172762" stroke-width="0.75" stroke-linecap="round" stroke-linejoin="round" stroke-miterlimit="10" d="
	M43.033,35.625c0,4.092-3.317,7.408-7.408,7.408s-7.408-3.317-7.408-7.408s3.317-7.408,7.408-7.408c0.015,0,0.03,0,0.045,0"/>
<path fill="none" stroke="#172762" stroke-width="0.75" stroke-linecap="round" stroke-linejoin="round" stroke-miterlimit="10" d="
	M23.246,31.319c0-0.013,0.004-0.025,0.004-0.038c0-0.013-0.006-0.024-0.007-0.037c-0.028-0.92-0.211-6.776-0.434-6.776
	c-0.181,0-0.337,3.877-0.403,5.822c-0.338-0.143-0.745-0.231-1.172-0.262c-0.061-1.829-0.222-6.081-0.412-6.081
	c-0.19,0-0.352,4.263-0.412,6.088c-0.391,0.037-0.76,0.125-1.072,0.257c-0.069-1.979-0.221-5.699-0.399-5.699
	c-0.212,0-0.389,5.331-0.429,6.625C18.51,31.24,18.5,31.258,18.5,31.28c0,0.022,0.007,0.042,0.007,0.064
	c-0.003,0.092-0.005,0.157-0.005,0.157c0,0.128,0.026,0.242,0.062,0.347c0.146,0.978,0.633,1.797,1.315,2.205v12.255
	c0,0.547,0.448,0.994,0.994,0.994c0.547,0,0.994-0.448,0.994-0.994V34.053c0.722-0.432,1.226-1.323,1.335-2.378
	c0.026-0.091,0.043-0.191,0.043-0.298C23.247,31.377,23.246,31.348,23.246,31.319z"/>
</svg>
