<?xml version="1.0" encoding="utf-8"?>
<!-- Generator: Adobe Illustrator 17.0.0, SVG Export Plug-In . SVG Version: 6.00 Build 0)  -->
<!DOCTYPE svg PUBLIC "-//W3C//DTD SVG 1.1//EN" "http://www.w3.org/Graphics/SVG/1.1/DTD/svg11.dtd">
<svg version="1.1" id="Layer_1" xmlns="http://www.w3.org/2000/svg" xmlns:xlink="http://www.w3.org/1999/xlink" x="0px" y="0px"
	 width="71.25px" height="71.25px" viewBox="0 0 71.25 71.25" enable-background="new 0 0 71.25 71.25" xml:space="preserve">
<path fill="none" stroke="#172762" stroke-width="0.75" stroke-linecap="round" stroke-linejoin="round" stroke-miterlimit="10" d="
	M28.008,31.764v0.82v0.93v0.71c0,0,0,0,0,0.001c0,0.257,0.208,0.465,0.465,0.465h1.13h0.93h1.13c0,0,0,0,0.001,0
	c0.257,0,0.465-0.208,0.465-0.465v-2.46h2.518c0.21,0,0.394-0.14,0.449-0.343l1.245-4.569h1.971v20.234h-5.516
	c1.112-0.847,1.765-2.164,1.767-3.562v-4.03c0,0,0,0,0-0.001c0-0.257-0.208-0.465-0.465-0.465H26.04
	c-0.257,0-0.465,0.208-0.465,0.465v1.427H25.56c-1.018,0.001-1.843,0.826-1.844,1.844c-0.001,1.019,0.825,1.845,1.844,1.846h0.153
	c0.247,0.985,0.821,1.857,1.627,2.475h-5.981c0,0,0,0-0.001,0c-0.257,0-0.465,0.208-0.465,0.465v4.702c0,0,0,0,0,0.001
	c0,0.257,0.208,0.465,0.465,0.465h25.253c3.192-0.004,5.778-2.59,5.782-5.782V27.001c-0.004-3.192-2.59-5.778-5.782-5.782H24.549
	c-2.018,0.002-3.653,1.637-3.655,3.655v1.513c0,0,0,0,0,0.001c0,0.257,0.208,0.465,0.465,0.465h2.436l1.245,4.569
	c0.055,0.202,0.239,0.343,0.449,0.343L28.008,31.764z M25.567,40.836l0.095,3.724 M27.34,47.087h5.651 M25.574,40.923h8.935
	 M22.649,26.818h14.611 M27.725,31.751h4.981 M20.903,50.653H50.75"/>
<path fill="none" stroke="#172762" stroke-width="0.75" stroke-linecap="round" stroke-linejoin="round" stroke-miterlimit="10" d="
	M41.83,41.223h7.044v4.031H41.83V41.223z"/>
<path fill="none" stroke="#172762" stroke-width="0.75" stroke-linecap="round" stroke-linejoin="round" stroke-miterlimit="10" d="
	M47.696,28.638c0-1.294-1.049-2.344-2.344-2.344c-1.294,0-2.344,1.049-2.344,2.344c0,1.294,1.049,2.344,2.344,2.344
	C46.646,30.981,47.695,29.932,47.696,28.638z"/>
<path fill="none" stroke="#172762" stroke-width="0.75" stroke-linecap="round" stroke-linejoin="round" stroke-miterlimit="10" d="
	M47.696,36.143L47.696,36.143c0-1.294-1.049-2.344-2.344-2.344c-1.294,0-2.344,1.049-2.344,2.344c0,1.294,1.049,2.344,2.344,2.344
	C46.646,38.485,47.695,37.437,47.696,36.143z"/>
<line fill="none" stroke="#172762" stroke-width="0.75" stroke-linecap="round" stroke-linejoin="round" stroke-miterlimit="10" x1="23.614" y1="33.301" x2="28.008" y2="33.301"/>
<line fill="none" stroke="#172762" stroke-width="0.75" stroke-linecap="round" stroke-linejoin="round" stroke-miterlimit="10" x1="28.959" y1="34.724" x2="28.959" y2="35.578"/>
<line fill="none" stroke="#172762" stroke-width="0.75" stroke-linecap="round" stroke-linejoin="round" stroke-miterlimit="10" x1="31.204" y1="34.724" x2="31.204" y2="35.578"/>
</svg>
