<?xml version="1.0" encoding="utf-8"?>
<!-- Generator: Adobe Illustrator 17.0.0, SVG Export Plug-In . SVG Version: 6.00 Build 0)  -->
<!DOCTYPE svg PUBLIC "-//W3C//DTD SVG 1.1//EN" "http://www.w3.org/Graphics/SVG/1.1/DTD/svg11.dtd">
<svg version="1.1" id="Layer_1" xmlns="http://www.w3.org/2000/svg" xmlns:xlink="http://www.w3.org/1999/xlink" x="0px" y="0px"
	 width="71.25px" height="71.25px" viewBox="0 0 71.25 71.25" enable-background="new 0 0 71.25 71.25" xml:space="preserve">
<g>
	
		<polyline fill="none" stroke="#172762" stroke-width="0.75" stroke-linecap="round" stroke-linejoin="round" stroke-miterlimit="10" points="
		16.771,57.251 16.771,45.36 54.479,45.36 54.479,57.251 	"/>
	
		<polyline fill="none" stroke="#172762" stroke-width="0.75" stroke-linecap="round" stroke-linejoin="round" stroke-miterlimit="10" points="
		50.661,31.677 50.661,45.318 20.589,45.318 20.589,31.677 	"/>
	<g>
		
			<polyline fill="none" stroke="#172762" stroke-width="0.75" stroke-linecap="round" stroke-linejoin="round" stroke-miterlimit="10" points="
			56.282,29.021 35.625,13.999 14.968,29.021 		"/>
	</g>
	
		<path fill="none" stroke="#172762" stroke-width="0.75" stroke-linecap="round" stroke-linejoin="round" stroke-miterlimit="10" d="
		M47.311,33.664c0-3.693-1.107-6.562-3.329-8.598s-4.973-3.059-8.248-3.059h-0.218c-3.786,0-6.662,1.069-8.63,3.203
		c-1.964,2.134-2.946,5.046-2.946,8.738v11.37h23.371V33.664z"/>
	<g>
		
			<path fill="none" stroke="#172762" stroke-width="0.75" stroke-linecap="round" stroke-linejoin="round" stroke-miterlimit="10" d="
			M35.954,39.271l-6.157-2.096c-0.342-0.117-0.734,0.025-0.872,0.314l-0.5,1.053c-0.137,0.29,0.03,0.622,0.372,0.738l1.78,0.606
			l1.78,0.606"/>
		
			<path fill="none" stroke="#172762" stroke-width="0.75" stroke-linecap="round" stroke-linejoin="round" stroke-miterlimit="10" d="
			M36.171,41.883l5.94,1.931c0.342,0.116,0.735-0.025,0.872-0.315l0.5-1.053c0.137-0.29-0.03-0.622-0.372-0.738l-3.212-1.094"/>
		
			<path fill="none" stroke="#172762" stroke-width="0.75" stroke-linecap="round" stroke-linejoin="round" stroke-miterlimit="10" d="
			M28.487,41.946l13.893-4.73c0.357-0.121,0.767,0.026,0.91,0.329l0.521,1.098c0.143,0.302-0.031,0.649-0.388,0.771l-13.893,4.73
			c-0.357,0.121-0.766-0.026-0.91-0.329l-0.521-1.098C27.955,42.414,28.13,42.068,28.487,41.946L28.487,41.946z"/>
		
			<path fill="none" stroke="#172762" stroke-width="0.75" stroke-linecap="round" stroke-linejoin="round" stroke-miterlimit="10" d="
			M30.556,35.998c-1.253-1.114-1.815-2.808-1.021-5.11c0.513-1.488,1.323-2.02,0.536-3.999c1.556,0.791,2.958,2.11,2.355,3.653
			c-1.292,3.304,2.747,4.891,2.534,2.327c-0.189-1.094-2.238-2.707-0.132-4.017c2.398-1.49,4.029-1.781,2.722-4.612
			c0.668,0.104,1.661,1.124,2.095,2.181c0.94,2.29-1.507,2.073-1.375,4.207c0.127,2.047,3.317,3.028,3.107-2.098
			c2.221,3.461,1.484,5.973-0.444,7.468"/>
	</g>
	
		<line fill="none" stroke="#172762" stroke-width="0.75" stroke-linecap="round" stroke-linejoin="round" stroke-miterlimit="10" x1="16.771" y1="52.646" x2="54.479" y2="52.646"/>
</g>
</svg>
