<?xml version="1.0" encoding="utf-8"?>
<!-- Generator: Adobe Illustrator 17.0.0, SVG Export Plug-In . SVG Version: 6.00 Build 0)  -->
<!DOCTYPE svg PUBLIC "-//W3C//DTD SVG 1.1//EN" "http://www.w3.org/Graphics/SVG/1.1/DTD/svg11.dtd">
<svg version="1.1" id="Layer_1" xmlns="http://www.w3.org/2000/svg" xmlns:xlink="http://www.w3.org/1999/xlink" x="0px" y="0px"
	 width="71.25px" height="71.25px" viewBox="0 0 71.25 71.25" enable-background="new 0 0 71.25 71.25" xml:space="preserve">
<g>
	
		<path fill="none" stroke="#172762" stroke-width="0.75" stroke-linecap="round" stroke-linejoin="round" stroke-miterlimit="10" d="
		M26.934,23.07h8.974c1.318,0,2.495,0.209,3.53,0.628s1.914,1.01,2.635,1.775c0.723,0.766,1.275,1.681,1.664,2.744
		c0.387,1.065,0.58,2.242,0.58,3.534v0.072c0,1.46-0.23,2.74-0.689,3.839c-0.461,1.101-1.094,2.022-1.898,2.762
		c-0.806,0.741-1.746,1.298-2.824,1.668c-1.078,0.371-2.233,0.556-3.467,0.556h-3.67v7.533h-4.832V23.07z M35.594,35.732
		c1.213,0,2.155-0.363,2.824-1.093c0.669-0.73,1.005-1.633,1.005-2.709v-0.072c0-1.244-0.351-2.188-1.052-2.835
		c-0.701-0.645-1.657-0.968-2.87-0.968h-3.734v7.676H35.594z"/>
</g>
</svg>
