<?xml version="1.0" encoding="utf-8"?>
<!-- Generator: Adobe Illustrator 17.0.0, SVG Export Plug-In . SVG Version: 6.00 Build 0)  -->
<!DOCTYPE svg PUBLIC "-//W3C//DTD SVG 1.1//EN" "http://www.w3.org/Graphics/SVG/1.1/DTD/svg11.dtd">
<svg version="1.1" id="Layer_1" xmlns="http://www.w3.org/2000/svg" xmlns:xlink="http://www.w3.org/1999/xlink" x="0px" y="0px"
	 width="71.25px" height="71.25px" viewBox="0 0 71.25 71.25" enable-background="new 0 0 71.25 71.25" xml:space="preserve">
<g>
	<g>
		
			<path fill="none" stroke="#172762" stroke-width="0.75" stroke-linecap="round" stroke-linejoin="round" stroke-miterlimit="10" d="
			M32.635,26.687c1.025,0,1.857,0.831,1.857,1.857c0,0.693-0.379,1.297-0.942,1.616c-0.275,0.162-0.597,0.255-0.94,0.255
			c-1.025,0-1.857-0.831-1.857-1.857c0-0.693,0.38-1.296,0.942-1.616C31.971,26.781,32.292,26.687,32.635,26.687L32.635,26.687z"/>
		
			<path fill="none" stroke="#172762" stroke-width="0.75" stroke-linecap="round" stroke-linejoin="round" stroke-miterlimit="10" d="
			M34.865,37.292c0.584,1.417,2.262,0.772,1.82-0.466l-1.105-4.265c-0.13-0.364-0.63-0.884-0.978-0.827
			c-2.15-0.264-2.579-0.198-4.073-0.014c-0.349-0.057-0.848,0.463-0.978,0.827l-0.993,4.265c-0.442,1.239,1.323,1.856,1.808,0.52"/>
		
			<path fill="none" stroke="#172762" stroke-width="0.75" stroke-linecap="round" stroke-linejoin="round" stroke-miterlimit="10" d="
			M34.877,35.83c0.004,1.569-0.036,3.584-0.24,4.513c-0.37,1.696-0.548,5.813-0.548,5.813h-2.935c0,0-0.177-4.117-0.548-5.813
			c-0.205-0.933-0.244-2.967-0.24-4.539"/>
	</g>
	<g>
		
			<path fill="none" stroke="#172762" stroke-width="0.75" stroke-linecap="round" stroke-linejoin="round" stroke-miterlimit="10" d="
			M38.641,25.095c1.025,0,1.857,0.831,1.857,1.857c0,0.693-0.379,1.297-0.942,1.616c-0.275,0.162-0.597,0.255-0.94,0.255
			c-1.025,0-1.857-0.831-1.857-1.857c0-0.693,0.38-1.296,0.942-1.616C37.976,25.188,38.297,25.095,38.641,25.095L38.641,25.095z"/>
		
			<path fill="none" stroke="#172762" stroke-width="0.75" stroke-linecap="round" stroke-linejoin="round" stroke-miterlimit="10" d="
			M40.87,35.699c0.584,1.417,2.262,0.772,1.82-0.466l-1.105-4.265c-0.13-0.364-0.63-0.884-0.978-0.827
			c-2.15-0.264-2.579-0.198-4.073-0.014c-0.261-0.043-0.608,0.239-0.819,0.536"/>
		
			<path fill="none" stroke="#172762" stroke-width="0.75" stroke-linecap="round" stroke-linejoin="round" stroke-miterlimit="10" d="
			M36.373,34.211"/>
		
			<path fill="none" stroke="#172762" stroke-width="0.75" stroke-linecap="round" stroke-linejoin="round" stroke-miterlimit="10" d="
			M40.883,34.237c0.004,1.569-0.036,3.584-0.24,4.513c-0.37,1.696-0.758,5.928-0.758,5.928H36.95c0,0,0.067-3.205-0.231-5.311"/>
	</g>
</g>
</svg>
