<?xml version="1.0" encoding="UTF-8" standalone="no"?>
<!-- Generator: Adobe Illustrator 17.0.0, SVG Export Plug-In . SVG Version: 6.00 Build 0)  -->

<svg
   xmlns:dc="http://purl.org/dc/elements/1.1/"
   xmlns:cc="http://creativecommons.org/ns#"
   xmlns:rdf="http://www.w3.org/1999/02/22-rdf-syntax-ns#"
   xmlns:svg="http://www.w3.org/2000/svg"
   xmlns="http://www.w3.org/2000/svg"
   xmlns:sodipodi="http://sodipodi.sourceforge.net/DTD/sodipodi-0.dtd"
   xmlns:inkscape="http://www.inkscape.org/namespaces/inkscape"
   version="1.1"
   id="Layer_1"
   x="0px"
   y="0px"
   width="71.25px"
   height="71.25px"
   viewBox="0 0 71.25 71.25"
   enable-background="new 0 0 71.25 71.25"
   xml:space="preserve"
   sodipodi:docname="pets.svg"
   inkscape:version="0.92.4 (5da689c313, 2019-01-14)"><metadata
   id="metadata15"><rdf:RDF><cc:Work
       rdf:about=""><dc:format>image/svg+xml</dc:format><dc:type
         rdf:resource="http://purl.org/dc/dcmitype/StillImage" /></cc:Work></rdf:RDF></metadata><defs
   id="defs13" /><sodipodi:namedview
   pagecolor="#ffffff"
   bordercolor="#666666"
   borderopacity="1"
   objecttolerance="10"
   gridtolerance="10"
   guidetolerance="10"
   inkscape:pageopacity="0"
   inkscape:pageshadow="2"
   inkscape:window-width="716"
   inkscape:window-height="480"
   id="namedview11"
   showgrid="false"
   inkscape:zoom="3.3122807"
   inkscape:cx="38.230567"
   inkscape:cy="35.625"
   inkscape:window-x="0"
   inkscape:window-y="0"
   inkscape:window-maximized="0"
   inkscape:current-layer="g8" />
<g
   id="g8">
	<g
   id="g4"
   style="fill:#172762;fill-opacity:1">
		
			<path
   fill="none"
   stroke="#FFF"
   stroke-width="0.75"
   stroke-linecap="round"
   stroke-linejoin="round"
   stroke-miterlimit="10"
   d="    M38.4,32.33c-0.214,0.894-1.11,1.615-1.554,1.437c-0.444-0.177-0.799-0.715-0.778-1.798C36.11,29.736,39.002,29.82,38.4,32.33    L38.4,32.33z M32.49,32.471c0.233,0.889,1.143,1.591,1.584,1.405c0.44-0.186,0.784-0.732,0.741-1.814    C34.726,29.831,31.837,29.974,32.49,32.471L32.49,32.471z M30.145,35.12c0.415,0.667,1.337,1.011,1.65,0.747    c0.313-0.264,0.455-0.797,0.146-1.67C31.304,32.396,28.979,33.245,30.145,35.12L30.145,35.12z M38.573,39.859    c-1.055,0.445-1.739-0.238-3.16-0.243c-1.366-0.005-1.592,0.748-2.995,0.233c-0.991-0.315-0.976-1.452-0.614-2.18    c0.264-0.529,0.738-1.006,1.371-1.392c0.299-0.247,0.49-0.673,0.801-1.019c0.708-0.788,2.525-0.809,3.156,0.023    c0.267,0.353,0.423,0.79,0.958,1.075C39.65,37.188,39.988,39.414,38.573,39.859L38.573,39.859z M40.838,34.902    c-0.41,0.671-1.329,1.021-1.644,0.76c-0.315-0.261-0.462-0.793-0.159-1.669C39.658,32.187,41.989,33.018,40.838,34.902    L40.838,34.902z"
   id="path2"
   style="fill:#172762;fill-opacity:1" />
	</g>
	
		<circle
   fill="none"
   stroke="#FFF"
   stroke-width="0.75"
   stroke-linecap="round"
   stroke-linejoin="round"
   stroke-miterlimit="10"
   cx="35.625"
   cy="35.625"
   r="8.214"
   id="circle6" />
</g>
</svg>