<?xml version="1.0" encoding="utf-8"?>
<!-- Generator: Adobe Illustrator 17.0.0, SVG Export Plug-In . SVG Version: 6.00 Build 0)  -->
<!DOCTYPE svg PUBLIC "-//W3C//DTD SVG 1.1//EN" "http://www.w3.org/Graphics/SVG/1.1/DTD/svg11.dtd">
<svg version="1.1" id="Layer_1" xmlns="http://www.w3.org/2000/svg" xmlns:xlink="http://www.w3.org/1999/xlink" x="0px" y="0px"
	 width="71.25px" height="71.25px" viewBox="0 0 71.25 71.25" enable-background="new 0 0 71.25 71.25" xml:space="preserve">
<g>
	
		<path fill="none" stroke="#172762" stroke-width="0.75" stroke-linecap="round" stroke-linejoin="round" stroke-miterlimit="10" d="
		M30.892,41.674V17.451c0-1.6,1.309-2.909,2.909-2.909l0,0c1.601,0,2.91,1.309,2.91,2.909 M48.169,41.674V17.451
		c0-1.6,1.309-2.909,2.909-2.909l0,0c1.602,0,2.91,1.309,2.91,2.909 M47.473,28.323H30.892 M47.473,36.7H30.892 M54.641,42.858
		c-0.821,1.987-2.779,3.387-5.064,3.387c-2.154,0-4.018-1.244-4.913-3.053c-0.894,1.809-2.757,3.053-4.911,3.053
		c-2.154,0-4.018-1.244-4.913-3.053c-0.894,1.809-2.758,3.053-4.912,3.053c-2.153,0-4.018-1.244-4.911-3.053
		c-0.894,1.809-2.758,3.053-4.913,3.053c-2.284,0-4.242-1.399-5.064-3.387 M44.665,51.145c-0.894,1.809-2.757,3.053-4.911,3.053
		c-2.154,0-4.018-1.244-4.913-3.053c-0.894,1.809-2.758,3.053-4.913,3.053c-2.153,0-4.018-1.244-4.911-3.053
		c-0.894,1.809-2.758,3.053-4.913,3.053c-2.284,0-4.242-1.398-5.064-3.387"/>
</g>
</svg>
