<?xml version="1.0" encoding="utf-8"?>
<!-- Generator: Adobe Illustrator 17.0.0, SVG Export Plug-In . SVG Version: 6.00 Build 0)  -->
<!DOCTYPE svg PUBLIC "-//W3C//DTD SVG 1.1//EN" "http://www.w3.org/Graphics/SVG/1.1/DTD/svg11.dtd">
<svg version="1.1" id="Layer_1" xmlns="http://www.w3.org/2000/svg" xmlns:xlink="http://www.w3.org/1999/xlink" x="0px" y="0px"
	 width="71.25px" height="71.25px" viewBox="0 0 71.25 71.25" enable-background="new 0 0 71.25 71.25" xml:space="preserve">
<g>
	<g>
		<path fill="none" stroke="#172762" stroke-width="0.75" stroke-miterlimit="10" d="M51.421,21.607H19.829v22.478
			c17.71,0,22.539,0,31.592,0V21.607L51.421,21.607z"/>
		
			<line fill="none" stroke="#172762" stroke-width="0.75" stroke-linecap="round" stroke-miterlimit="10" x1="28.069" y1="49.643" x2="43.181" y2="49.643"/>
		
			<line fill="none" stroke="#172762" stroke-width="0.75" stroke-miterlimit="10" x1="34.315" y1="48.886" x2="34.315" y2="44.411"/>
		
			<line fill="none" stroke="#172762" stroke-width="0.75" stroke-miterlimit="10" x1="36.934" y1="48.886" x2="36.934" y2="44.411"/>
	</g>
	<g>
		<path fill="#172762" d="M23.31,34.874c0.096,0.072,0.202,0.137,0.318,0.194c0.116,0.057,0.235,0.105,0.356,0.144
			c0.121,0.039,0.243,0.068,0.366,0.088s0.24,0.03,0.352,0.03c0.435,0,0.76-0.084,0.976-0.252c0.216-0.168,0.324-0.41,0.324-0.724
			c0-0.152-0.025-0.285-0.076-0.398c-0.051-0.113-0.129-0.219-0.236-0.318c-0.107-0.099-0.241-0.197-0.404-0.294
			c-0.163-0.097-0.355-0.207-0.576-0.33c-0.245-0.133-0.456-0.259-0.63-0.378c-0.175-0.119-0.317-0.24-0.428-0.364
			s-0.192-0.258-0.244-0.402c-0.052-0.144-0.078-0.308-0.078-0.492c0-0.232,0.049-0.44,0.148-0.624s0.232-0.341,0.4-0.47
			s0.365-0.229,0.59-0.298c0.225-0.069,0.466-0.104,0.722-0.104c0.451,0,0.828,0.063,1.132,0.188v0.588
			c-0.339-0.195-0.736-0.292-1.192-0.292c-0.171,0-0.331,0.021-0.482,0.062c-0.151,0.041-0.283,0.102-0.396,0.182
			c-0.113,0.08-0.203,0.179-0.268,0.298c-0.065,0.119-0.098,0.257-0.098,0.414c0,0.149,0.022,0.278,0.066,0.386
			c0.044,0.108,0.115,0.21,0.212,0.306s0.225,0.191,0.384,0.286c0.159,0.095,0.353,0.203,0.582,0.326
			c0.24,0.128,0.45,0.253,0.628,0.374c0.179,0.121,0.327,0.248,0.446,0.38c0.119,0.132,0.207,0.272,0.266,0.42
			c0.059,0.148,0.088,0.313,0.088,0.494c0,0.251-0.047,0.472-0.14,0.662c-0.093,0.191-0.224,0.349-0.392,0.474
			s-0.368,0.22-0.6,0.284s-0.487,0.096-0.764,0.096c-0.091,0-0.199-0.007-0.324-0.022c-0.125-0.015-0.252-0.036-0.38-0.064
			c-0.128-0.028-0.25-0.061-0.366-0.1c-0.116-0.039-0.21-0.081-0.282-0.126V34.874z"/>
		<path fill="#172762" d="M31.875,35.715l-0.632-1.697h-2.461l-0.616,1.697h-0.592l2.185-5.738h0.536l2.173,5.738H31.875z
			 M30.126,30.981c-0.019-0.051-0.038-0.109-0.058-0.176s-0.037-0.143-0.05-0.228h-0.016c-0.016,0.085-0.034,0.161-0.054,0.228
			s-0.039,0.125-0.058,0.176l-0.928,2.553h2.101L30.126,30.981z"/>
		<path fill="#172762" d="M34.834,30.465v5.25h-0.532v-5.25h-1.653v-0.488h3.842v0.488H34.834z"/>
		<path fill="#172762" d="M41.37,30.465v5.25h-0.532v-5.25h-1.653v-0.488h3.842v0.488H41.37z"/>
		<path fill="#172762" d="M46.533,35.715h-0.52l-2.089-5.738h0.596l1.625,4.586c0.029,0.085,0.055,0.171,0.078,0.258
			c0.023,0.087,0.041,0.177,0.054,0.27h0.016c0.013-0.075,0.032-0.157,0.056-0.246c0.024-0.089,0.055-0.186,0.092-0.29l1.693-4.578
			h0.576L46.533,35.715z"/>
	</g>
</g>
</svg>
