<?xml version="1.0" encoding="utf-8"?>
<!-- Generator: Adobe Illustrator 17.0.0, SVG Export Plug-In . SVG Version: 6.00 Build 0)  -->
<!DOCTYPE svg PUBLIC "-//W3C//DTD SVG 1.1//EN" "http://www.w3.org/Graphics/SVG/1.1/DTD/svg11.dtd">
<svg version="1.1" id="Layer_1" xmlns="http://www.w3.org/2000/svg" xmlns:xlink="http://www.w3.org/1999/xlink" x="0px" y="0px"
	 width="71.25px" height="71.25px" viewBox="0 0 71.25 71.25" enable-background="new 0 0 71.25 71.25" xml:space="preserve">
<g>
	
		<path fill="none" stroke="#172762" stroke-width="0.75" stroke-linecap="round" stroke-linejoin="round" stroke-miterlimit="10" d="
		M45.019,21.35c0.405,0,0.734,0.329,0.734,0.734c0,0.405-0.329,0.734-0.734,0.734c-0.404,0-0.733-0.328-0.733-0.734
		C44.286,21.678,44.615,21.35,45.019,21.35L45.019,21.35z M41.115,21.35c0.405,0,0.734,0.329,0.734,0.734
		c0,0.405-0.329,0.734-0.734,0.734c-0.404,0-0.733-0.328-0.733-0.734C40.382,21.678,40.711,21.35,41.115,21.35L41.115,21.35z
		 M37.211,21.35c0.405,0,0.734,0.329,0.734,0.734c0,0.405-0.329,0.734-0.734,0.734c-0.404,0-0.733-0.328-0.733-0.734
		C36.478,21.678,36.806,21.35,37.211,21.35L37.211,21.35z M26.231,21.35c0.405,0,0.734,0.329,0.734,0.734
		c0,0.405-0.329,0.734-0.734,0.734s-0.734-0.328-0.734-0.734C25.497,21.678,25.826,21.35,26.231,21.35L26.231,21.35z M35.626,28.16
		c4.836,0,8.757,3.92,8.757,8.758c0,4.836-3.92,8.758-8.757,8.758c-4.837,0-8.759-3.921-8.759-8.758
		C26.867,32.081,30.788,28.16,35.626,28.16L35.626,28.16z M35.626,30.725c3.42,0,6.192,2.772,6.192,6.193
		c0,3.42-2.772,6.192-6.192,6.192c-2.02,0-3.813-0.966-4.943-2.463c0.338-0.787,0.564-2.21,0.564-3.837
		c0-1.534-0.201-2.887-0.508-3.696C31.871,31.66,33.639,30.725,35.626,30.725L35.626,30.725z M21.936,18.178h27.377
		c0.591,0,1.668,1.08,1.668,1.669c0,11.574,0-0.009,0,31.556c0,0.588-1.081,1.668-1.668,1.668H21.936
		c-0.587,0-1.668-1.078-1.668-1.668c0-26.449,0-21.725,0-31.556C20.268,19.256,21.345,18.178,21.936,18.178L21.936,18.178z"/>
</g>
</svg>
