<?xml version="1.0" encoding="UTF-8" standalone="no"?>
<!-- Generator: Adobe Illustrator 17.0.0, SVG Export Plug-In . SVG Version: 6.00 Build 0)  -->

<svg
   xmlns:dc="http://purl.org/dc/elements/1.1/"
   xmlns:cc="http://creativecommons.org/ns#"
   xmlns:rdf="http://www.w3.org/1999/02/22-rdf-syntax-ns#"
   xmlns:svg="http://www.w3.org/2000/svg"
   xmlns="http://www.w3.org/2000/svg"
   xmlns:sodipodi="http://sodipodi.sourceforge.net/DTD/sodipodi-0.dtd"
   xmlns:inkscape="http://www.inkscape.org/namespaces/inkscape"
   version="1.1"
   id="Layer_1"
   x="0px"
   y="0px"
   width="71.25px"
   height="71.25px"
   viewBox="0 0 71.25 71.25"
   enable-background="new 0 0 71.25 71.25"
   xml:space="preserve"
   sodipodi:docname="young_groups.svg"
   inkscape:version="0.92.4 (5da689c313, 2019-01-14)"><metadata
   id="metadata41"><rdf:RDF><cc:Work
       rdf:about=""><dc:format>image/svg+xml</dc:format><dc:type
         rdf:resource="http://purl.org/dc/dcmitype/StillImage" /></cc:Work></rdf:RDF></metadata><defs
   id="defs39" /><sodipodi:namedview
   pagecolor="#ffffff"
   bordercolor="#666666"
   borderopacity="1"
   objecttolerance="10"
   gridtolerance="10"
   guidetolerance="10"
   inkscape:pageopacity="0"
   inkscape:pageshadow="2"
   inkscape:window-width="1920"
   inkscape:window-height="1017"
   id="namedview37"
   showgrid="false"
   inkscape:zoom="9.3685446"
   inkscape:cx="28.202608"
   inkscape:cy="38.548502"
   inkscape:window-x="-8"
   inkscape:window-y="-8"
   inkscape:window-maximized="1"
   inkscape:current-layer="Layer_1" />
<g
   id="g14"
   style="fill:#172762;fill-opacity:1">
	<g
   id="g4"
   style="fill:#172762;fill-opacity:1">
		<path
   fill="#FFFFFF"
   stroke="#FFFFFF"
   stroke-width="0.15"
   stroke-miterlimit="10"
   d="M43.462,26.593l-0.571,0.916l-0.87,2.494    l-1.331,2.431c0,0,0.254,3.373,0.194,3.631c-0.055,0.236,1.355,4.308,1.404,4.454c0.049,0.146-0.121,4.139-0.121,4.139H41.78    l-0.563-3.768c0,0-1.131-2.767-1.228-2.961c-0.003-0.006-0.007-0.008-0.01-0.008c-0.135,0-0.933,3.014-0.933,3.155    c0,0.145-1.235,3.582-1.235,3.582h-0.532l1.307-8.036l-0.805-3.006l-1.204,2.01l-0.436,1.868v0.847l-0.605,0.605l0.436-3.824    l1.065-2.3c0,0,0.218-0.793,0.605-0.841c0.387-0.049,2.493-0.586,2.493-0.586l1.355-2.117l0.919-2.421L43.462,26.593     M43.462,26.041c-0.044,0-0.089,0.005-0.134,0.016l-1.053,0.264c-0.175,0.044-0.318,0.171-0.382,0.339l-0.9,2.367l-1.207,1.885    c-0.811,0.205-1.979,0.49-2.214,0.52c-0.663,0.082-0.963,0.883-1.056,1.196l-1.047,2.261c-0.025,0.054-0.041,0.111-0.048,0.169    l-0.436,3.824c-0.027,0.233,0.097,0.458,0.308,0.559c0.077,0.037,0.158,0.054,0.24,0.054c0.144,0,0.285-0.056,0.391-0.162    l0.605-0.605c0.104-0.104,0.162-0.244,0.162-0.39v-0.783l0.402-1.722l0.49-0.818l0.437,1.633l-1.288,7.919    c-0.026,0.16,0.019,0.323,0.124,0.446s0.258,0.194,0.42,0.194h0.532c0.233,0,0.441-0.146,0.52-0.365    c1.078-3.001,1.239-3.542,1.263-3.706l0,0c0.027-0.166,0.234-0.96,0.439-1.681c0.216,0.523,0.457,1.112,0.649,1.581l0.553,3.702    c0.04,0.27,0.272,0.47,0.546,0.47h0.387c0.296,0,0.539-0.233,0.551-0.529c0.174-4.095,0.133-4.218,0.093-4.337l-0.047-0.138    c-1.122-3.272-1.299-3.983-1.327-4.129c0.016-0.234,0.007-0.949-0.184-3.52l1.253-2.287c0.015-0.027,0.027-0.054,0.037-0.083    l0.85-2.437l0.538-0.864c0.119-0.191,0.11-0.435-0.022-0.617C43.803,26.123,43.636,26.041,43.462,26.041L43.462,26.041z"
   id="path2"
   style="fill:#172762;fill-opacity:1" />
	</g>
	
		<circle
   fill="none"
   stroke="#FFFFFF"
   stroke-width="0.75"
   stroke-linecap="round"
   stroke-linejoin="round"
   stroke-miterlimit="10"
   cx="38.216"
   cy="29.186"
   r="1.283"
   id="circle6"
   style="fill:#172762;fill-opacity:1" />
	<g
   id="g10"
   style="fill:#172762;fill-opacity:1">
		<path
   fill="#FFFFFF"
   stroke="#FFFFFF"
   stroke-width="0.15"
   stroke-miterlimit="10"
   d="M30.549,27.835h0.004 M30.549,27.835    l-1.921,3.119l1.402,1.044c0,0,1.945,0.505,2.303,0.551c0.008,0.001,0.017,0.001,0.026,0.001c0.398,0,1.822-0.947,1.822-0.947    l0.678-2.437v-0.968l0.678,0.944l-0.844,3.1l-2.393,1.932l-0.875,2.807l1.955,3.75l-0.712,3.73h-0.492c0,0,0.191-3.364,0.191-3.5    c0-0.133-2.27-3.297-2.473-3.297c-0.006,0-0.01,0.002-0.012,0.007c-0.089,0.182-0.713,3.428-0.713,3.428l-0.66,3.363h-0.358    c0,0,0.174-3.468,0.219-3.604c0.045-0.136-0.53-3.578-0.581-3.799c-0.056-0.242,1.522-4.287,1.522-4.287l-1.522-1.746l1.477-2.1    l0.363-0.799L30.549,27.835 M30.549,27.283c-0.015,0-0.03,0.001-0.046,0.002c-0.046,0.004-0.091,0.013-0.133,0.028l-0.908,0.286    c-0.149,0.047-0.272,0.155-0.336,0.298l-0.342,0.752l-1.447,2.058c-0.146,0.208-0.132,0.489,0.035,0.68l1.302,1.494    c-1.516,3.903-1.467,4.114-1.424,4.3c0.058,0.261,0.547,3.219,0.568,3.632c-0.032,0.243-0.088,0.987-0.22,3.62    c-0.007,0.151,0.047,0.299,0.152,0.409c0.105,0.11,0.249,0.172,0.4,0.172h0.358c0.264,0,0.491-0.187,0.542-0.445l0.66-3.363    c0.161-0.838,0.338-1.731,0.473-2.385c0.585,0.76,1.396,1.895,1.625,2.265c-0.024,0.483-0.119,2.183-0.186,3.344    c-0.009,0.152,0.046,0.3,0.15,0.411c0.105,0.11,0.25,0.173,0.401,0.173h0.492c0.265,0,0.492-0.188,0.543-0.448l0.712-3.73    c0.024-0.122,0.004-0.249-0.053-0.359l-1.85-3.548l0.757-2.429l2.262-1.827c0.091-0.073,0.155-0.172,0.186-0.284l0.844-3.1    c0.043-0.16,0.013-0.332-0.084-0.467l-0.678-0.944c-0.106-0.147-0.274-0.23-0.448-0.23c-0.057,0-0.113,0.009-0.169,0.027    c-0.228,0.074-0.383,0.286-0.383,0.526v0.893l-0.602,2.164c-0.56,0.361-1.145,0.681-1.349,0.738    c-0.308-0.054-1.377-0.321-2.082-0.503l-0.91-0.677L31,28.155c0.064-0.09,0.102-0.2,0.102-0.319c0-0.304-0.244-0.551-0.548-0.552    C30.553,27.283,30.551,27.283,30.549,27.283L30.549,27.283z"
   id="path8"
   style="fill:#172762;fill-opacity:1" />
	</g>
	
		<ellipse
   fill="none"
   stroke="#FFFFFF"
   stroke-width="0.75"
   stroke-linecap="round"
   stroke-linejoin="round"
   stroke-miterlimit="10"
   cx="32.152"
   cy="29.773"
   rx="1.185"
   ry="1.206"
   id="ellipse12"
   style="fill:#172762;fill-opacity:1" />
</g>
<g
   id="g34">
	<g
   id="g18">
		
			<polyline
   fill="none"
   stroke="#172762"
   stroke-width="0.75"
   stroke-linecap="round"
   stroke-linejoin="round"
   stroke-miterlimit="10"
   points="    -250.878,142.137 -250.878,137.045 -248.843,137.045 -235.872,137.045 -235.872,142.137   "
   id="polyline16" />
	</g>
	
		<line
   fill="none"
   stroke="#172762"
   stroke-width="0.75"
   stroke-linecap="round"
   stroke-linejoin="round"
   stroke-miterlimit="10"
   x1="-254.195"
   y1="147.879"
   x2="-232.555"
   y2="147.879"
   id="line20" />
	<g
   id="g26">
		
			<path
   fill="none"
   stroke="#172762"
   stroke-width="0.75"
   stroke-linecap="round"
   stroke-linejoin="round"
   stroke-miterlimit="10"
   d="    M-248.654,142.884c-0.283-0.212-0.464-0.535-0.464-0.897v-1.204c0-0.639,0.564-1.156,1.26-1.156h2.152    c0.696,0,1.26,0.518,1.26,1.156v1.204c0,0.215-0.064,0.417-0.176,0.589"
   id="path22" />
		
			<path
   fill="none"
   stroke="#172762"
   stroke-width="0.75"
   stroke-linecap="round"
   stroke-linejoin="round"
   stroke-miterlimit="10"
   d="    M-242.126,142.58c-0.113-0.173-0.177-0.376-0.177-0.592v-1.204c0-0.639,0.564-1.156,1.26-1.156h2.152    c0.696,0,1.26,0.518,1.26,1.156v1.204c0,0.362-0.181,0.685-0.464,0.897"
   id="path24" />
	</g>
	
		<path
   fill="none"
   stroke="#172762"
   stroke-width="0.75"
   stroke-linecap="round"
   stroke-linejoin="round"
   stroke-miterlimit="10"
   d="   M-253.871,144.953c0-1.321,4.699-2.393,10.496-2.393c0.423,0,0.84,0.006,1.25,0.017c1.455,0.039,2.819,0.147,4.028,0.307   c3.12,0.415,5.217,1.186,5.217,2.069"
   id="path28" />
	<g
   id="g32">
		
			<polyline
   fill="none"
   stroke="#172762"
   stroke-width="0.75"
   stroke-linecap="round"
   stroke-linejoin="round"
   stroke-miterlimit="10"
   points="    -254.195,150.205 -254.195,145.028 -251.26,145.028 -232.555,145.028 -232.555,150.205   "
   id="polyline30" />
	</g>
</g>
</svg>